<?xml version="1.0" encoding="utf-8"?>
<!-- Generator: Adobe Illustrator 25.0.1, SVG Export Plug-In . SVG Version: 6.00 Build 0)  -->
<svg version="1.1" id="Capa_1" xmlns="http://www.w3.org/2000/svg" xmlns:xlink="http://www.w3.org/1999/xlink" x="0px" y="0px"
	 viewBox="0 0 712 794.5" style="enable-background:new 0 0 712 794.5;" xml:space="preserve">
<style type="text/css">
	.st0{fill:url(#SVGID_1_);}
	.st1{fill:url(#SVGID_2_);}
	.st2{fill:none;}
	.st3{fill:url(#SVGID_6_);}
	.st4{opacity:0.1;fill:url(#SVGID_7_);}
</style>
<linearGradient id="SVGID_1_" gradientUnits="userSpaceOnUse" x1="155.0885" y1="961.4564" x2="473.9886" y2="-177.1756" gradientTransform="matrix(1 0 0 -1 0 859.0588)">
	<stop  offset="0.1166" style="stop-color:#009DAE"/>
	<stop  offset="0.9827" style="stop-color:#009DAE;stop-opacity:0"/>
</linearGradient>
<path class="st0" d="M0,163.5h396.5C570.7,163.5,712,304.8,712,479v315.5H0V163.5z"/>
<linearGradient id="SVGID_2_" gradientUnits="userSpaceOnUse" x1="152.5536" y1="1054.5935" x2="483.7266" y2="-103.9855" gradientTransform="matrix(1 0 0 -1 0 859.0588)">
	<stop  offset="0.1166" style="stop-color:#009DAE"/>
	<stop  offset="0.7817" style="stop-color:#009DAE;stop-opacity:0"/>
</linearGradient>
<path class="st1" d="M5.1,73.7h390c177.8,0,322,144.2,322,322v322H5.1V73.7z"/>
<polygon id="SVGID_5_" class="st2" points="629.4,360.8 317.7,592.5 9.6,367 5.9,9.2 314.4,-218.5 625.8,2.9 "/>
<g>
	<g>
		<defs>
			<path id="SVGID_3_" d="M-106.4,543.2l6.8,0.3c1.7,0.1,3.4-0.6,4.6-1.9l19.2-20.2c1.2-1.2,2.8-2,4.5-2.1l24.9-1.1l-6.8-18.6
				l-3.7-8.5l-2.6-15.2c-0.1-0.5-0.8-0.5-0.9,0l-1.9,8.1c-0.3,1.1-1.7,1.5-2.4,0.6l-7.2-9.4l-3.8-1.4l-1.3-5.3l-3.4-4.5l1.1-16.2
				c0.2-3,0.7-6,1.4-9l5.2-21c0.1-0.8,0.1-1.5,0-2.3l-4-31.6l-3.2-29.7c-0.1-0.5-0.1-1.1-0.1-1.6l-0.6-32.2
				c-2-17.8-16.4-40.1-13-58.5c3.4-18.4,15.1-16.5,15.1-16.5s-5.8-12.9-0.1-17.7c1.1-9.3,2.3-28.5,2.3-28.5s8.6-20.6,8.7-23.6
				c0.1-3,4.4-12,4.4-12l1.3-3.8l3.8-2.5l3.4-3l3.4-8.5l-6.4-20.3c0,0-2-14.4,2.1-12.3s17.4-11,17.4-11l5.9-6.4l-0.8-15.3
				c0,0,14.7,3.1,12.7-7.2c5.9,0.7,12.7-7.2,12.7-7.2L4,61.6c0.5-0.2,1.1-0.4,1.6-0.5L16.1,59l1.6-10.7l16.5-15.7l15.7-3.4l5.5-0.4
				c0,0,67.8-14.4,60.2,25c11.9,8.1,25,2.5,25,2.5s3.4-17.8,32.2-1.3c8.6,6.4,20.6,2.7,27.5,6.8c4.9,2.9,7.6,13.4,11.4,15.3
				c10,4.9,10.6,9.3,10.6,9.3s290.4,14.4,316.4,28c26,13.6,26,8.5,36.2,58.8s-27.5,267.9-88.1,362.2c7.2,8.8-2.8,18.6-2.8,18.6
				s-12.6,16.1-22.6,36.2c-12.3,24.8-22,56-17.2,76c8.6,36.2,9.3,85,9.3,85l2.8,49.7l-562.5,0.4L-106.4,543.2z"/>
		</defs>
		<clipPath id="SVGID_4_">
			<use xlink:href="#SVGID_3_"  style="overflow:visible;"/>
		</clipPath>
		<g style="clip-path:url(#SVGID_4_);">
			
				<image style="overflow:visible;" width="862" height="960" xlink:href="D:\WALLY\wally\BRAND HDV\1451459_10204943466971514_5811072432317381182_n.jpg"  transform="matrix(0.2892 0 0 0.2892 31.3816 75.0717)">
			</image>
		</g>
	</g>
	<linearGradient id="SVGID_6_" gradientUnits="userSpaceOnUse" x1="180.5453" y1="352.2343" x2="409.899" y2="352.2343">
		<stop  offset="0.1166" style="stop-color:#009DAE"/>
		<stop  offset="0.7817" style="stop-color:#009DAE;stop-opacity:0"/>
	</linearGradient>
	<path class="st3" d="M231.7,182.6c-10.8,12,7.5,20.7,11.2,36.1c3.7,15.3-17,51.8-3.7,74.2c7.2,12.2,3,66.2-9.9,107.7
		c-10.8,34.6-28.1,57-45.6,72.1c0,0-5.8,22.5-1.5,32.6c4.3,10.1,7,5.1,12,15.6c6.2,4,8.4,1,8.4,1l6.8-2.6l5.1-4.8
		c0,0-4.6-20.2,7.2-21.1c11.7-1,13.2-0.7,13.2-0.7s7.1,3.2,8.9-1.5c0.9-2.3,2.7-4.8,4.3-6.7c1.8-2.2,4.6-3.2,7.4-2.7l2.4,0.4
		c2.5,0.4,5-0.5,6.7-2.4l7.2-8.3l19.3-22c0.9-1.1,2.2-1.8,3.6-2.1l1.8-0.4c0,0-0.4-8.6,1.1-9.5s17.7-8,19.8-10.2
		c1.5-1.6,2.1-8.6,2.4-12.3c0.1-1.5,0.8-2.8,2-3.7l3.4-2.5l5.2-1l5.8-5.6c0,0,0.5-8.4,6.6-9.1c-0.2-2,1-3.7,1-3.7s6.2-5.5,6.4-6.2
		c0.2-0.8-0.4-4.8-0.4-4.8l1.9-5.6l5.2-4.1c0.2-10.6,53.2-97.2,53.2-97.2l-8.3-16.6C401.6,254.7,242.5,170.6,231.7,182.6z"/>
</g>
<linearGradient id="SVGID_7_" gradientUnits="userSpaceOnUse" x1="-106.3898" y1="413.7647" x2="576.4846" y2="413.7647">
	<stop  offset="0.1166" style="stop-color:#009DAE"/>
	<stop  offset="0.7817" style="stop-color:#009DAE;stop-opacity:0"/>
</linearGradient>
<path class="st4" d="M-106.4,543.2l6.8,0.3c1.7,0.1,3.4-0.6,4.6-1.9l19.2-20.2c1.2-1.2,2.8-2,4.5-2.1l24.9-1.1l-6.8-18.6l-3.7-8.5
	l-2.6-15.2c-0.1-0.5-0.8-0.5-0.9,0l-1.9,8.1c-0.3,1.1-1.7,1.5-2.4,0.6l-7.2-9.4l-3.8-1.4l-1.3-5.3l-3.4-4.5l1.1-16.2
	c0.2-3,0.7-6,1.4-9l5.2-21c0.1-0.8,0.1-1.5,0-2.3l-4-31.6l-3.2-29.7c-0.1-0.5-0.1-1.1-0.1-1.6l-0.6-32.2c-2-17.8-16.4-40.1-13-58.5
	c3.4-18.4,15.1-16.5,15.1-16.5s-5.8-12.9-0.1-17.7c1.1-9.3,2.3-28.5,2.3-28.5s8.6-20.6,8.7-23.6c0.1-3,4.4-12,4.4-12l1.3-3.8
	l3.8-2.5l3.4-3l3.4-8.5l-6.4-20.3c0,0-2-14.4,2.1-12.3s17.4-11,17.4-11l5.9-6.4l-0.8-15.3c0,0,14.7,3.1,12.7-7.2
	c5.9,0.7,12.7-7.2,12.7-7.2L4,61.6c0.5-0.2,1.1-0.4,1.6-0.5L16.1,59l1.6-10.7l16.5-15.7l15.7-3.4l5.5-0.4c0,0,67.8-14.4,60.2,25
	c11.9,8.1,25,2.5,25,2.5s3.4-17.8,32.2-1.3c8.6,6.4,20.6,2.7,27.5,6.8c4.9,2.9,7.6,13.4,11.4,15.3c10,4.9,10.6,9.3,10.6,9.3
	s290.4,14.4,316.4,28c26,13.6,26,8.5,36.2,58.8s-27.5,267.9-88.1,362.2c7.2,8.8-2.8,18.6-2.8,18.6s-12.6,16.1-22.6,36.2
	c-12.3,24.8-22,56-17.2,76c8.6,36.2,9.3,85,9.3,85l2.8,49.7l-562.5,0.4L-106.4,543.2z"/>
</svg>
